<?xml version="1.0" standalone="no"?>
<!DOCTYPE svg PUBLIC "-//W3C//DTD SVG 20010904//EN"
 "http://www.w3.org/TR/2001/REC-SVG-20010904/DTD/svg10.dtd">
<svg version="1.0" xmlns="http://www.w3.org/2000/svg"
 width="1920.000000pt" height="1080.000000pt" viewBox="0 0 1920.000000 1080.000000"
 preserveAspectRatio="xMidYMid meet">

<g transform="translate(0.000000,1080.000000) scale(0.100000,-0.100000)"
fill="#000000" stroke="none">
<path d="M10 6390 l0 -4400 50 0 50 0 0 4400 0 4400 -50 0 -50 0 0 -4400z"/>
<path d="M1008 10783 l-498 -3 -2 -1503 c-1 -826 0 -2826 2 -4444 l3 -2943
-251 0 -252 0 0 -50 0 -50 100 0 100 0 0 -600 0 -600 44 0 43 0 7 77 c3 42 6
312 6 600 l0 523 50 0 50 0 0 -500 0 -500 45 0 45 0 0 50 0 50 49 0 50 0 3 48
3 47 48 3 47 3 0 50 0 49 50 0 50 0 0 50 0 50 50 0 50 0 0 50 0 50 49 0 48 0
7 77 c3 42 6 177 6 300 l0 223 -200 0 -200 0 0 100 0 100 245 0 245 0 0 -350
0 -350 49 0 50 0 3 48 3 47 47 3 47 3 3 47 3 47 48 3 47 3 0 150 0 149 -45 0
-45 0 0 100 0 100 100 0 100 0 0 -50 0 -50 150 0 150 0 0 50 0 50 50 0 50 0 0
100 0 100 50 0 50 0 0 50 0 50 45 0 45 0 0 100 0 100 55 0 55 0 0 50 0 50 100
0 100 0 0 200 0 200 50 0 50 0 0 50 0 50 50 0 50 0 0 50 0 50 50 0 50 0 0 50
0 50 50 0 50 0 0 50 0 50 -105 0 -105 0 0 -50 0 -50 -245 0 -245 0 0 100 0
100 395 0 395 0 0 50 0 50 50 0 50 0 0 50 0 50 250 0 250 0 0 50 0 50 250 0
250 0 0 50 0 50 150 0 150 0 0 50 0 50 150 0 150 0 0 50 0 50 100 0 100 0 0
50 0 50 100 0 100 0 0 50 0 50 100 0 100 0 0 50 0 50 50 0 50 0 0 50 0 50 100
0 100 0 0 50 0 50 100 0 100 0 0 50 0 50 49 0 50 0 3 48 3 47 48 3 47 3 0 50
0 49 105 0 105 0 0 50 0 50 50 0 50 0 0 -300 0 -300 50 0 50 0 0 -100 0 -100
50 0 50 0 0 -100 0 -100 50 0 50 0 0 -100 0 -100 50 0 50 0 0 -50 0 -50 50 0
50 0 0 -50 0 -50 50 0 50 0 0 -50 0 -50 50 0 50 0 0 -50 0 -50 50 0 50 0 0
-50 0 -50 50 0 50 0 0 -50 0 -50 50 0 50 0 0 -50 0 -50 200 0 200 0 0 50 0 50
150 0 150 0 0 50 0 50 100 0 100 0 0 50 0 50 50 0 50 0 0 150 0 150 50 0 50 0
0 50 0 50 100 0 100 0 0 50 0 50 50 0 50 0 0 50 0 50 95 0 95 0 0 50 0 50 50
0 50 0 0 50 0 50 -345 0 -345 0 0 50 0 50 -100 0 -100 0 0 50 0 50 -50 0 -50
0 0 50 0 50 -50 0 -50 0 0 50 0 50 -50 0 -50 0 0 50 0 50 -50 0 -50 0 0 400 0
400 50 0 50 0 0 150 0 150 -50 0 -50 0 0 -50 0 -50 -50 0 -50 0 0 -50 0 -50
-50 0 -50 0 0 -100 0 -100 -50 0 -50 0 0 -50 0 -50 -50 0 -50 0 0 50 0 50 -50
0 -50 0 0 50 0 50 -50 0 -50 0 0 400 0 400 50 0 50 0 0 50 0 50 50 0 50 0 0
50 0 50 50 0 50 0 0 100 0 100 45 0 45 0 0 -50 0 -50 55 0 55 0 0 50 0 50 50
0 50 0 0 -56 0 -57 77 7 c42 3 87 6 100 6 23 0 23 2 23 100 l0 100 100 0 100
0 0 -56 0 -56 95 7 95 7 0 -51 0 -50 53 -3 52 -3 3 -195 c2 -107 0 -241 -3
-297 l-7 -103 -49 0 -49 0 0 -50 0 -50 -45 0 -45 0 0 -99 0 -100 48 -3 47 -3
3 -47 3 -47 47 -3 47 -3 3 -47 3 -47 47 -3 47 -3 3 -47 3 -48 100 0 99 0 0 50
0 50 100 0 100 0 0 50 0 50 50 0 50 0 0 50 0 50 100 0 100 0 0 -50 0 -50 -50
0 -50 0 0 -50 0 -50 -50 0 -50 0 0 -50 0 -50 -105 0 -105 0 0 -50 0 -50 -295
0 -295 0 0 50 0 50 -55 0 -55 0 0 -50 0 -50 -50 0 -50 0 0 -50 0 -50 100 0
100 0 0 -50 0 -50 50 0 50 0 0 -50 0 -50 55 0 55 0 0 -50 0 -50 -50 0 -50 0 0
-99 0 -100 48 -3 47 -3 -3 -98 -4 -97 306 0 306 0 0 100 0 100 -249 0 -250 0
-3 48 -3 47 -47 3 -48 3 0 50 0 49 300 0 300 0 0 50 0 50 50 0 50 0 0 50 0 50
50 0 50 0 0 -100 0 -100 -50 0 -50 0 0 -50 0 -50 50 0 50 0 0 50 0 50 50 0 50
0 0 100 0 100 -50 0 -50 0 0 100 0 100 50 0 50 0 0 100 0 100 50 0 50 0 0 50
0 50 50 0 50 0 0 100 0 100 -50 0 -50 0 0 50 0 50 -400 0 -400 0 0 50 0 50 50
0 50 0 0 50 0 50 50 0 50 0 0 50 0 50 -50 0 -50 0 0 100 0 100 -50 0 -50 0 0
150 0 150 -50 0 -50 0 0 100 0 100 145 0 145 0 0 -100 0 -100 49 0 48 0 8
-100 7 -100 49 0 49 0 0 50 0 50 50 0 50 0 0 100 0 100 100 0 100 0 0 -100 0
-100 -50 0 -50 0 0 -50 0 -50 50 0 50 0 0 -50 0 -50 -150 0 -150 0 0 -50 0
-50 150 0 150 0 0 50 0 50 50 0 50 0 0 151 0 150 48 -3 47 -3 3 -97 3 -98 49
0 50 0 0 -550 0 -550 -50 0 -50 0 0 -250 0 -250 -50 0 -50 0 0 -150 0 -150
-50 0 -50 0 0 -100 0 -100 -50 0 -50 0 0 -50 0 -50 -50 0 -50 0 0 -200 0 -200
50 0 50 0 0 -50 0 -50 50 0 50 0 0 -50 0 -50 150 0 150 0 0 -50 0 -50 100 0
100 0 0 -50 0 -50 100 0 100 0 0 -50 0 -50 150 0 150 0 0 -50 0 -50 150 0 150
0 0 -50 0 -50 100 0 100 0 0 -50 0 -50 50 0 50 0 0 -50 0 -50 50 0 50 0 0 -50
0 -50 50 0 50 0 0 -50 0 -50 50 0 50 0 0 -50 0 -50 50 0 50 0 0 -100 0 -100
50 0 50 0 0 -100 0 -100 50 0 50 0 0 -100 0 -100 50 0 50 0 0 -200 0 -200 50
0 50 0 0 -150 0 -150 50 0 50 0 0 -50 0 -50 50 0 50 0 0 -50 0 -50 50 0 50 0
0 -50 0 -50 50 0 50 0 0 -50 0 -50 50 0 50 0 0 -100 0 -100 50 0 50 0 0 700 0
700 1250 0 1250 0 0 -50 0 -50 400 0 400 0 0 2100 0 2100 150 0 150 0 0 100 0
100 100 0 100 0 0 50 0 50 50 0 50 0 0 250 0 250 -50 0 -50 0 0 50 0 50 -250
0 -250 0 0 1300 0 1300 751 0 752 0 -5 -4945 -5 -4945 1098 0 1099 0 0 5393 0
5394 -8847 -1 c-4867 0 -9072 -2 -9345 -3z m-298 -1093 l0 -100 50 0 50 0 0
-100 0 -100 250 0 250 0 0 -50 0 -50 45 0 45 0 0 100 0 100 49 0 50 0 3 48 3
47 53 3 52 3 0 100 0 99 50 0 50 0 0 -150 0 -150 -50 0 -50 0 0 -50 0 -50 -50
0 -50 0 0 -50 0 -50 -50 0 -50 0 0 -50 0 -50 -305 0 -305 0 0 100 0 100 -50 0
-50 0 0 100 0 100 -50 0 -50 0 0 100 0 100 55 0 55 0 0 -100z m0 -600 l0 -100
95 0 95 0 0 50 0 50 205 0 205 0 0 -50 0 -50 200 0 200 0 0 50 0 50 50 0 50 0
0 -100 0 -100 -100 0 -100 0 0 -50 0 -50 -150 0 -150 0 0 50 0 50 -50 0 -50 0
0 50 0 50 -100 0 -100 0 0 -50 0 -50 -50 0 -50 0 0 -50 0 -50 -105 0 -105 0 0
50 0 50 -50 0 -50 0 0 150 0 150 55 0 55 0 0 -100z m7998 -552 l3 -48 50 0 49
0 0 50 0 50 50 0 50 0 0 -100 0 -100 50 0 50 0 0 50 0 50 50 0 50 0 0 -50 0
-50 50 0 50 0 0 -100 0 -100 50 0 50 0 0 -150 0 -150 50 0 50 0 0 -100 0 -100
-50 0 -50 0 0 50 0 50 -205 0 -205 0 0 -50 0 -50 -50 0 -50 0 0 -150 0 -150
-45 0 -45 0 0 -50 0 -50 -150 0 -150 0 0 100 0 100 -50 0 -50 0 0 200 0 200
-50 0 -50 0 0 50 0 50 -300 0 -300 0 0 50 0 50 -100 0 -100 0 0 -50 0 -50 95
0 95 0 0 -50 0 -50 -50 0 -50 0 0 -50 0 -50 -50 0 -50 0 0 -50 0 -50 -51 0
-50 0 3 -52 3 -53 153 -3 152 -3 0 51 0 50 200 0 200 0 0 -45 0 -45 -50 0 -50
0 0 -50 0 -50 -50 0 -50 0 0 -50 0 -50 -50 0 -50 0 0 -50 0 -50 -100 0 -100 0
0 -50 0 -50 -100 0 -100 0 0 50 0 50 -50 0 -50 0 0 200 0 200 -50 0 -50 0 0
100 0 100 50 0 50 0 0 50 0 50 50 0 50 0 0 50 0 50 50 0 50 0 0 50 0 50 100 0
100 0 0 50 0 50 -250 0 -250 0 0 44 0 45 48 3 47 3 3 47 3 47 97 3 97 3 3 48
3 47 44 0 44 0 3 -47 3 -48 100 0 100 0 3 48 3 47 44 0 44 0 3 -47 3 -48 50 0
50 0 3 48 3 47 94 0 94 0 3 -47 3 -48 100 0 100 0 3 48 3 47 44 0 44 0 3 -47
3 -48 50 0 50 0 3 47 3 47 47 4 c26 2 70 3 97 3 l50 -1 3 -47z m6302 -798 l0
-250 -100 0 -100 0 0 100 0 100 -850 0 -850 0 0 -250 0 -250 -50 0 -50 0 0
-249 0 -250 48 -3 47 -3 3 -997 2 -998 850 0 850 0 0 950 0 950 100 0 100 0 0
-1200 0 -1200 -1100 0 -1100 0 0 1200 0 1200 50 0 50 0 0 450 0 450 -50 0 -50
0 0 250 0 250 1100 0 1100 0 0 -250z m-12310 -300 l0 -50 -345 0 -345 0 0 50
0 50 345 0 345 0 0 -50z m208 -102 l3 -48 -50 0 -51 0 0 51 0 50 48 -3 47 -3
3 -47z m8702 2 l0 -50 50 0 50 0 0 -50 0 -50 -50 0 -50 0 0 50 0 50 -200 0
-200 0 0 -250 0 -250 150 0 150 0 0 50 0 50 50 0 50 0 0 50 0 50 -100 0 -100
0 0 50 0 50 150 0 150 0 0 -200 0 -200 -50 0 -50 0 0 50 0 50 -50 0 -50 0 0
-50 0 -50 -150 0 -150 0 0 50 0 50 -50 0 -50 0 0 250 0 250 50 0 50 0 0 50 0
50 200 0 200 0 0 -50z m500 0 l0 -50 -50 0 -50 0 0 50 0 50 50 0 50 0 0 -50z
m700 -300 l0 -350 -150 0 -150 0 0 50 0 50 -50 0 -50 0 0 150 0 150 50 0 50 0
0 50 0 50 100 0 100 0 0 100 0 100 50 0 50 0 0 -350z m700 0 l0 -350 -150 0
-150 0 0 50 0 50 -50 0 -50 0 0 150 0 150 50 0 50 0 0 50 0 50 100 0 100 0 0
100 0 100 50 0 50 0 0 -350z m1400 50 l0 -300 150 0 150 0 0 300 0 300 50 0
50 0 0 -300 0 -300 -50 0 -50 0 0 -50 0 -50 -150 0 -150 0 0 50 0 50 -50 0
-50 0 0 300 0 300 50 0 50 0 0 -300z m-5508 243 l3 -48 53 -3 52 -3 0 -95 0
-94 -50 0 -50 0 0 -50 0 -50 -50 0 -50 0 0 50 0 50 -50 0 -50 0 0 100 0 100
50 0 50 0 0 45 0 45 44 0 45 0 3 -47z m2708 -393 l0 -250 -50 0 -50 0 0 250 0
250 50 0 50 0 0 -250z m1800 50 l0 -200 50 0 50 0 0 200 0 200 50 0 50 0 0
-300 0 -300 -50 0 -50 0 0 -50 0 -50 -100 0 -100 0 0 50 0 50 100 0 100 0 0
50 0 50 -50 0 -50 0 0 50 0 50 -50 0 -50 0 0 200 0 200 50 0 50 0 0 -200z
m2000 150 l0 -50 50 0 50 0 0 -150 0 -150 -50 0 -50 0 0 -50 0 -50 -100 0
-100 0 0 -100 0 -100 -50 0 -50 0 0 350 0 350 150 0 150 0 0 -50z m-7910 -100
l0 -50 -195 0 -195 0 0 50 0 50 195 0 195 0 0 -50z m1200 0 l0 -50 -145 0
-145 0 0 50 0 50 145 0 145 0 0 -50z m-1600 -100 l0 -50 -45 0 -45 0 0 50 0
50 45 0 45 0 0 -50z m1700 0 l0 -50 -45 0 -45 0 0 50 0 50 45 0 45 0 0 -50z
m-1800 -100 l0 -50 -45 0 -45 0 0 50 0 50 45 0 45 0 0 -50z m-1390 -5 l0 -45
-50 0 -50 0 0 45 0 45 50 0 50 0 0 -45z m-110 -100 l0 -45 -45 0 -45 0 0 45 0
45 45 0 45 0 0 -45z m-100 -150 l0 -95 -45 0 -45 0 0 95 0 95 45 0 45 0 0 -95z
m200 -545 l0 -50 -45 0 -45 0 0 50 0 50 45 0 45 0 0 -50z m308 -2 l3 -48 -50
0 -51 0 0 51 0 50 48 -3 47 -3 3 -47z m-208 -98 l0 -50 -45 0 -45 0 0 50 0 50
45 0 45 0 0 -50z m108 -102 l3 -48 -50 0 -51 0 0 51 0 50 48 -3 47 -3 3 -47z
m2802 -398 l0 -50 -50 0 -50 0 0 -50 0 -50 -50 0 -50 0 0 -50 0 -50 -350 0
-350 0 0 50 0 50 300 0 300 0 0 50 0 50 100 0 100 0 0 50 0 50 50 0 50 0 0
-50z"/>
<path d="M7610 8140 l0 -50 300 0 300 0 0 50 0 50 -300 0 -300 0 0 -50z"/>
<path d="M8810 8040 l0 -50 100 0 100 0 0 50 0 50 -100 0 -100 0 0 -50z"/>
<path d="M7310 7940 l0 -50 -50 0 -50 0 0 -50 0 -50 50 0 50 0 0 50 0 50 50 0
50 0 0 50 0 50 -50 0 -50 0 0 -50z"/>
<path d="M12510 6940 l0 -150 100 0 100 0 0 150 0 150 -100 0 -100 0 0 -150z"/>
<path d="M13210 6940 l0 -150 100 0 100 0 0 150 0 150 -100 0 -100 0 0 -150z"/>
<path d="M15710 6940 l0 -150 100 0 100 0 0 150 0 150 -100 0 -100 0 0 -150z"/>
<path d="M16200 7040 l0 -450 155 0 155 0 0 450 0 450 -155 0 -155 0 0 -450z
m210 100 l0 -250 -50 0 -50 0 0 250 0 250 50 0 50 0 0 -250z m0 -400 l0 -50
-50 0 -50 0 0 50 0 50 50 0 50 0 0 -50z"/>
<path d="M8010 6540 l0 -50 -200 0 -200 0 0 -50 0 -50 200 0 200 0 0 50 0 50
100 0 100 0 0 50 0 50 -100 0 -100 0 0 -50z"/>
<path d="M7700 2940 l0 -50 55 0 55 0 0 50 0 50 -55 0 -55 0 0 -50z"/>
<path d="M8000 2840 l0 -50 105 0 105 0 0 50 0 50 -105 0 -105 0 0 -50z"/>
<path d="M7604 2613 c3 -42 6 -87 6 -100 0 -21 4 -23 50 -23 l50 0 0 100 0
100 -56 0 -57 0 7 -77z"/>
<path d="M7900 2640 l0 -50 -44 0 -43 0 -7 -77 c-11 -131 -14 -123 49 -123
l55 0 0 100 0 100 50 0 50 0 0 50 0 50 -55 0 -55 0 0 -50z"/>
<path d="M8010 2441 l0 -51 51 0 50 0 -3 48 -3 47 -47 3 -48 3 0 -50z"/>
<path d="M7710 2240 l0 -50 44 0 44 0 7 -100 7 -100 49 0 49 0 0 50 0 50 44 0
44 0 7 -100 7 -100 49 0 49 0 0 100 0 100 -50 0 -50 0 0 100 0 100 -150 0
-150 0 0 -50z"/>
<path d="M12300 1467 c0 -343 3 -658 6 -700 l7 -77 48 0 49 0 0 -100 0 -100
50 0 50 0 0 -50 0 -50 50 0 50 0 0 -50 0 -50 50 0 50 0 0 -50 0 -50 50 0 50 0
0 -50 0 -50 50 0 50 0 0 1000 0 1000 -305 0 -305 0 0 -623z"/>
<path d="M13000 1045 l0 -1045 255 0 255 0 0 1045 0 1045 -255 0 -255 0 0
-1045z"/>
<path d="M13600 1045 l0 -1045 305 0 305 0 0 1045 0 1045 -305 0 -305 0 0
-1045z"/>
<path d="M14300 1045 l0 -1045 305 0 305 0 0 995 0 995 45 0 45 0 0 -995 0
-995 255 0 255 0 0 1045 0 1045 -605 0 -605 0 0 -1045z"/>
<path d="M15910 1045 l0 -1045 100 0 100 0 0 1045 0 1045 -100 0 -100 0 0
-1045z"/>
<path d="M16510 1045 l0 -1045 100 0 100 0 0 1045 0 1045 -100 0 -100 0 0
-1045z"/>
<path d="M3810 590 l0 -100 -50 0 -50 0 0 -50 0 -50 100 0 100 0 0 150 0 150
-50 0 -50 0 0 -100z"/>
<path d="M110 240 l0 -49 148 -3 147 -3 3 -47 3 -47 147 -3 147 -3 3 -43 3
-42 500 0 500 0 -3 42 -3 43 -147 3 -147 3 -3 47 -3 47 -147 3 -147 3 -3 47
-3 47 -497 3 -498 2 0 -50z"/>
<path d="M3410 140 l0 -50 -55 0 -55 0 0 -45 0 -45 305 0 305 0 0 95 0 95
-250 0 -250 0 0 -50z"/>
</g>
</svg>
